<svg preserveAspectRatio="none" width="100%" height="100%" overflow="visible" style="display: block;" viewBox="0 0 16 24" fill="none" xmlns="http://www.w3.org/2000/svg">
<g id="Group">
<path id="Vector" d="M7.45273 14.0188C3.19099 14.404 -0.0558499 18.0051 0.000728209 22.2838V22.5008C0.000728209 23.3292 0.672306 24.0008 1.50073 24.0008C2.32915 24.0008 3.00073 23.3292 3.00073 22.5008V22.2238C2.95563 19.5967 4.89438 17.3564 7.50073 17.0238C10.252 16.751 12.7035 18.7601 12.9763 21.5114C12.9924 21.674 13.0006 21.8373 13.0007 22.0008V22.5008C13.0007 23.3292 13.6723 24.0008 14.5007 24.0008C15.3291 24.0008 16.0007 23.3292 16.0007 22.5008V22.0008C15.9958 17.5775 12.4061 13.9957 7.98288 14.0006C7.80602 14.0008 7.62921 14.0069 7.45273 14.0188Z" fill="var(--fill-0, white)"/>
<path id="Vector_2" d="M8.00077 12C11.3145 12 14.0008 9.31369 14.0008 6C14.0008 2.68631 11.3145 0 8.00077 0C4.68708 0 2.00077 2.68631 2.00077 6C2.00405 9.31233 4.68844 11.9967 8.00077 12ZM8.00077 3C9.65762 3 11.0008 4.34316 11.0008 6C11.0008 7.65684 9.65762 9 8.00077 9C6.34393 9 5.00077 7.65684 5.00077 6C5.00077 4.34316 6.34393 3 8.00077 3Z" fill="var(--fill-0, white)"/>
</g>
</svg>
