<svg preserveAspectRatio="none" width="100%" height="100%" overflow="visible" style="display: block;" viewBox="0 0 18 16" fill="none" xmlns="http://www.w3.org/2000/svg">
<path id="Vector" d="M15.2649 5.83348H5.00638L7.85188 2.98798C8.18018 2.65984 8.36467 2.21473 8.36478 1.75056C8.36489 1.28639 8.18061 0.841192 7.85247 0.512898C7.52433 0.184604 7.07921 0.000109445 6.61505 4.86774e-08C6.15088 -0.000109348 5.70568 0.184176 5.37738 0.512315L1.19372 4.69598C0.42928 5.46252 0 6.50091 0 7.58348C0 8.66605 0.42928 9.70444 1.19372 10.471L5.37738 14.6546C5.70568 14.9828 6.15088 15.1671 6.61505 15.167C7.07921 15.1669 7.52433 14.9824 7.85247 14.6541C8.18061 14.3258 8.36489 13.8806 8.36478 13.4164C8.36467 12.9522 8.18018 12.5071 7.85188 12.179L5.00638 9.33348H15.2649C15.729 9.33348 16.1741 9.14911 16.5023 8.82092C16.8305 8.49273 17.0149 8.04761 17.0149 7.58348C17.0149 7.11935 16.8305 6.67423 16.5023 6.34604C16.1741 6.01786 15.729 5.83348 15.2649 5.83348Z" fill="var(--fill-0, #3C2F2F)"/>
</svg>
